<svg version="1.1" id="Layer_1" xmlns="http://www.w3.org/2000/svg" xmlns:xlink="http://www.w3.org/1999/xlink" x="0px" y="0px" width="100%" viewBox="-33 0 4167 4167" enable-background="new -33 0 4167 4167">
  <path fill="none" opacity="1.000000" stroke="none" d="
M3428.586670,2244.878662 
	C3424.022705,2219.986328 3420.140625,2194.946045 3414.782715,2170.225830 
	C3382.205811,2019.922241 3331.986816,1875.653198 3265.666016,1736.942627 
	C3262.530273,1730.384399 3259.546631,1723.753662 3256.927979,1718.098267 
	C3270.805176,1682.272217 3284.795654,1647.729614 3297.628418,1612.762085 
	C3367.987793,1421.045166 3406.464111,1223.166748 3410.652832,1018.882996 
	C3412.322021,937.482544 3407.443115,856.378601 3396.996094,775.576294 
	C3389.213623,715.382202 3377.826660,655.933472 3363.161865,597.081482 
	C3347.336182,533.570801 3324.324219,472.621521 3297.223633,413.145630 
	C3294.790283,407.805756 3292.302002,402.491058 3289.799805,397.079712 
	C3283.053223,397.079712 3277.082520,396.888245 3271.127686,397.112823 
	C3245.150879,398.092499 3219.162354,398.896332 3193.210693,400.349701 
	C3174.589600,401.392487 3155.935059,402.688141 3137.443359,405.036469 
	C3061.767334,414.646606 2988.613525,434.015472 2917.824707,462.501221 
	C2813.176270,504.612305 2718.138428,562.988403 2629.760498,632.562500 
	C2513.854004,723.808167 2413.161133,829.933899 2323.621094,946.893677 
	C2320.020508,951.596924 2316.225830,956.151794 2312.605225,960.671570 
	C2282.996338,956.159424 2254.171875,951.128418 2225.169678,947.524475 
	C2195.434082,943.829346 2165.567871,940.937805 2135.679688,938.788940 
	C2106.445801,936.687073 2077.112305,934.913513 2047.823730,934.934082 
	C2018.535156,934.954590 1989.204956,936.780945 1959.972656,938.908997 
	C1930.085693,941.084656 1900.220215,943.981873 1870.484619,947.683228 
	C1841.578125,951.281555 1812.848389,956.300110 1784.720459,960.591431 
	C1762.670166,933.140198 1741.829102,906.307434 1720.060181,880.249939 
	C1634.253906,777.540100 1539.133301,684.525330 1431.168457,605.077454 
	C1339.984863,537.978333 1242.263794,482.929657 1134.870117,446.001038 
	C1071.027710,424.048035 1005.710510,408.417267 938.268860,403.334961 
	C897.084412,400.231384 855.771729,398.818817 814.511292,396.754089 
	C811.985901,396.627716 809.413269,397.446259 806.158020,397.929749 
	C790.729248,435.677490 773.024292,472.219818 759.950989,510.678894 
	C716.755188,637.751953 695.334290,768.913147 688.601074,902.532471 
	C684.236633,989.145569 686.194946,1075.733276 695.126343,1162.147705 
	C701.159851,1220.524780 709.551453,1278.512085 721.138245,1335.979980 
	C746.474915,1461.644653 784.408630,1583.494385 834.126953,1701.666748 
	C836.421997,1707.121582 838.435608,1712.694824 840.445923,1717.867310 
	C838.697632,1721.622559 837.329346,1724.644043 835.893738,1727.633179 
	C750.891602,1904.617798 689.938477,2089.084229 662.442688,2284.011475 
	C654.052551,2343.491455 648.554993,2403.247070 648.965515,2463.276123 
	C649.498840,2541.251221 651.884460,2619.213379 653.516541,2697.180420 
	C653.697876,2705.841797 654.029907,2714.506104 654.575500,2723.150879 
	C654.759338,2726.063965 653.673706,2729.941406 659.056946,2731.257568 
	C663.502319,2728.164062 668.393982,2724.771973 673.273376,2721.362305 
	C711.503174,2694.649414 749.704895,2667.895996 788.009338,2641.290527 
	C791.006592,2639.208740 793.827026,2635.240967 798.511780,2637.963867 
	C798.839966,2639.199219 799.396118,2640.398193 799.448608,2641.618652 
	C801.569092,2690.952393 807.234253,2739.884277 815.685852,2788.524658 
	C828.043335,2859.645020 847.368591,2928.719727 876.249390,2994.962891 
	C924.739563,3106.183350 996.418701,3198.659668 1096.661987,3268.286621 
	C1133.870239,3294.130859 1170.114624,3321.359619 1207.018188,3347.648926 
	C1215.828247,3353.924561 1223.151733,3361.243652 1229.746460,3369.790527 
	C1320.594360,3487.531250 1436.648193,3570.330078 1577.076416,3618.860840 
	C1634.931152,3638.854980 1693.138184,3657.829346 1751.200317,3677.221924 
	C1754.835815,3678.436279 1758.604858,3679.250488 1763.352539,3680.531738 
	C1763.741943,3674.352051 1764.066406,3669.202881 1764.386230,3664.129150 
	C1765.424561,3663.981201 1766.243286,3663.586914 1766.720337,3663.838867 
	C1772.518555,3666.904785 1778.453369,3669.768066 1783.999512,3673.246826 
	C1862.532959,3722.506348 1946.498169,3758.556152 2037.350586,3778.072021 
	C2044.003540,3779.501221 2050.352051,3780.581543 2057.018799,3778.815186 
	C2078.886719,3773.022461 2100.947266,3767.886230 2122.619629,3761.441650 
	C2190.717773,3741.193115 2254.117920,3710.617920 2314.235352,3672.990967 
	C2319.713623,3669.562256 2325.409912,3666.481445 2332.154297,3662.572510 
	C2332.669434,3669.455322 2333.052002,3674.564209 2333.506836,3680.643066 
	C2338.899658,3679.115234 2343.369141,3678.045410 2347.708740,3676.589111 
	C2402.594482,3658.170898 2457.408691,3639.538330 2512.343750,3621.269287 
	C2657.566162,3572.975098 2776.707520,3488.115967 2869.727539,3366.629883 
	C2875.084229,3359.634277 2881.316406,3353.940918 2888.408691,3348.852051 
	C2927.930176,3320.494873 2967.174316,3291.748535 3006.834961,3263.588623 
	C3087.737305,3206.145996 3150.241699,3132.816650 3196.511475,3045.330811 
	C3246.004150,2951.750732 3273.749512,2851.436035 3287.762451,2747.073486 
	C3292.191162,2714.092285 3294.054688,2680.768311 3297.219727,2647.613525 
	C3297.564453,2644.001953 3298.756104,2640.470947 3299.510010,2637.102783 
	C3301.506592,2637.241699 3302.341797,2637.042480 3302.812256,2637.369141 
	C3346.031982,2667.366943 3389.223389,2697.405029 3432.418945,2727.437500 
	C3433.512695,2728.197754 3434.617432,2728.944580 3435.742188,2729.657715 
	C3436.291992,2730.006348 3436.877930,2730.323730 3437.487549,2730.544434 
	C3438.109863,2730.769531 3438.793945,2731.013672 3439.427490,2730.962402 
	C3440.035645,2730.913086 3440.613770,2730.495361 3442.497070,2729.680908 
	C3443.548828,2724.021240 3443.116455,2717.481201 3443.257812,2711.045898 
	C3444.181396,2669.061768 3444.660400,2627.065430 3445.926270,2585.092285 
	C3448.136963,2511.785400 3450.669922,2438.450439 3443.609131,2365.300781 
	C3439.835693,2326.208740 3434.007812,2287.314941 3428.586670,2244.878662 
z"></path>
  <path fill="#FCFCFC" fill-rule="evenodd" opacity="1.000000" stroke="none" d="
M3428.846924,2246.604980 
	C3434.007812,2287.314941 3439.835693,2326.208740 3443.609131,2365.300781 
	C3450.669922,2438.450439 3448.136963,2511.785400 3445.926270,2585.092285 
	C3444.660400,2627.065430 3444.181396,2669.061768 3443.257812,2711.045898 
	C3443.116455,2717.481201 3443.548828,2724.021240 3442.497070,2729.680908 
	C3440.613770,2730.495361 3440.035645,2730.913086 3439.427490,2730.962402 
	C3438.793945,2731.013672 3438.109863,2730.769531 3437.487549,2730.544434 
	C3436.877930,2730.323730 3436.291992,2730.006348 3435.742188,2729.657715 
	C3434.617432,2728.944580 3433.512695,2728.197754 3432.418945,2727.437500 
	C3389.223389,2697.405029 3346.031982,2667.366943 3302.812256,2637.369141 
	C3302.341797,2637.042480 3301.506592,2637.241699 3299.510010,2637.102783 
	C3298.756104,2640.470947 3297.564453,2644.001953 3297.219727,2647.613525 
	C3294.054688,2680.768311 3292.191162,2714.092285 3287.762451,2747.073486 
	C3273.749512,2851.436035 3246.004150,2951.750732 3196.511475,3045.330811 
	C3150.241699,3132.816650 3087.737305,3206.145996 3006.834961,3263.588623 
	C2967.174316,3291.748535 2927.930176,3320.494873 2888.408691,3348.852051 
	C2881.316406,3353.940918 2875.084229,3359.634277 2869.727539,3366.629883 
	C2776.707520,3488.115967 2657.566162,3572.975098 2512.343750,3621.269287 
	C2457.408691,3639.538330 2402.594482,3658.170898 2347.708740,3676.589111 
	C2343.369141,3678.045410 2338.899658,3679.115234 2333.506836,3680.643066 
	C2333.052002,3674.564209 2332.669434,3669.455322 2332.154297,3662.572510 
	C2325.409912,3666.481445 2319.713623,3669.562256 2314.235352,3672.990967 
	C2254.117920,3710.617920 2190.717773,3741.193115 2122.619629,3761.441650 
	C2100.947266,3767.886230 2078.886719,3773.022461 2057.018799,3778.815186 
	C2050.352051,3780.581543 2044.003540,3779.501221 2037.350586,3778.072021 
	C1946.498169,3758.556152 1862.532959,3722.506348 1783.999512,3673.246826 
	C1778.453369,3669.768066 1772.518555,3666.904785 1766.720337,3663.838867 
	C1766.243286,3663.586914 1765.424561,3663.981201 1764.386230,3664.129150 
	C1764.066406,3669.202881 1763.741943,3674.352051 1763.352539,3680.531738 
	C1758.604858,3679.250488 1754.835815,3678.436279 1751.200317,3677.221924 
	C1693.138184,3657.829346 1634.931152,3638.854980 1577.076416,3618.860840 
	C1436.648193,3570.330078 1320.594360,3487.531250 1229.746460,3369.790527 
	C1223.151733,3361.243652 1215.828247,3353.924561 1207.018188,3347.648926 
	C1170.114624,3321.359619 1133.870239,3294.130859 1096.661987,3268.286621 
	C996.418701,3198.659668 924.739563,3106.183350 876.249390,2994.962891 
	C847.368591,2928.719727 828.043335,2859.645020 815.685852,2788.524658 
	C807.234253,2739.884277 801.569092,2690.952393 799.448608,2641.618652 
	C799.396118,2640.398193 798.839966,2639.199219 798.511780,2637.963867 
	C793.827026,2635.240967 791.006592,2639.208740 788.009338,2641.290527 
	C749.704895,2667.895996 711.503174,2694.649414 673.273376,2721.362305 
	C668.393982,2724.771973 663.502319,2728.164062 659.056946,2731.257568 
	C653.673706,2729.941406 654.759338,2726.063965 654.575500,2723.150879 
	C654.029907,2714.506104 653.697876,2705.841797 653.516541,2697.180420 
	C651.884460,2619.213379 649.498840,2541.251221 648.965515,2463.276123 
	C648.554993,2403.247070 654.052551,2343.491455 662.442688,2284.011475 
	C689.938477,2089.084229 750.891602,1904.617798 835.893738,1727.633179 
	C837.329346,1724.644043 838.697632,1721.622559 840.445923,1717.867310 
	C838.435608,1712.694824 836.421997,1707.121582 834.126953,1701.666748 
	C784.408630,1583.494385 746.474915,1461.644653 721.138245,1335.979980 
	C709.551453,1278.512085 701.159851,1220.524780 695.126343,1162.147705 
	C686.194946,1075.733276 684.236633,989.145569 688.601074,902.532471 
	C695.334290,768.913147 716.755188,637.751953 759.950989,510.678894 
	C773.024292,472.219818 790.729248,435.677490 806.158020,397.929749 
	C809.413269,397.446259 811.985901,396.627716 814.511292,396.754089 
	C855.771729,398.818817 897.084412,400.231384 938.268860,403.334961 
	C1005.710510,408.417267 1071.027710,424.048035 1134.870117,446.001038 
	C1242.263794,482.929657 1339.984863,537.978333 1431.168457,605.077454 
	C1539.133301,684.525330 1634.253906,777.540100 1720.060181,880.249939 
	C1741.829102,906.307434 1762.670166,933.140198 1784.720459,960.591431 
	C1812.848389,956.300110 1841.578125,951.281555 1870.484619,947.683228 
	C1900.220215,943.981873 1930.085693,941.084656 1959.972656,938.908997 
	C1989.204956,936.780945 2018.535156,934.954590 2047.823730,934.934082 
	C2077.112305,934.913513 2106.445801,936.687073 2135.679688,938.788940 
	C2165.567871,940.937805 2195.434082,943.829346 2225.169678,947.524475 
	C2254.171875,951.128418 2282.996338,956.159424 2312.605225,960.671570 
	C2316.225830,956.151794 2320.020508,951.596924 2323.621094,946.893677 
	C2413.161133,829.933899 2513.854004,723.808167 2629.760498,632.562500 
	C2718.138428,562.988403 2813.176270,504.612305 2917.824707,462.501221 
	C2988.613525,434.015472 3061.767334,414.646606 3137.443359,405.036469 
	C3155.935059,402.688141 3174.589600,401.392487 3193.210693,400.349701 
	C3219.162354,398.896332 3245.150879,398.092499 3271.127686,397.112823 
	C3277.082520,396.888245 3283.053223,397.079712 3289.799805,397.079712 
	C3292.302002,402.491058 3294.790283,407.805756 3297.223633,413.145630 
	C3324.324219,472.621521 3347.336182,533.570801 3363.161865,597.081482 
	C3377.826660,655.933472 3389.213623,715.382202 3396.996094,775.576294 
	C3407.443115,856.378601 3412.322021,937.482544 3410.652832,1018.882996 
	C3406.464111,1223.166748 3367.987793,1421.045166 3297.628418,1612.762085 
	C3284.795654,1647.729614 3270.805176,1682.272217 3256.927979,1718.098267 
	C3259.546631,1723.753662 3262.530273,1730.384399 3265.666016,1736.942627 
	C3331.986816,1875.653198 3382.205811,2019.922241 3414.782715,2170.225830 
	C3420.140625,2194.946045 3424.022705,2219.986328 3428.846924,2246.604980 
M2486.602051,3350.313965 
	C2486.602051,3350.313965 2486.130127,3350.247314 2488.839600,3353.279297 
	C2488.187012,3365.233887 2487.951416,3377.228516 2486.802490,3389.135254 
	C2483.603271,3422.292725 2479.975342,3455.409180 2476.667480,3488.556641 
	C2476.306396,3492.175293 2476.925781,3495.891846 2477.141602,3500.707764 
	C2481.714844,3499.338867 2484.876709,3498.533447 2487.942139,3497.453857 
	C2528.904541,3483.025146 2567.899170,3464.443115 2604.849854,3441.631592 
	C2706.242920,3379.036865 2781.361572,3292.549561 2835.365967,3187.092041 
	C2866.441406,3126.408936 2888.770264,3062.583740 2901.994385,2993.776367 
	C2904.520996,2996.754639 2906.819336,2998.354736 2907.520264,3000.481445 
	C2910.641602,3009.951416 2913.679443,3019.479980 2916.068604,3029.154785 
	C2925.018555,3065.396484 2931.081299,3102.183105 2936.316650,3139.118408 
	C2937.108154,3144.702637 2936.639648,3150.815918 2941.954346,3156.076660 
	C2946.690918,3152.504883 2950.940918,3149.424072 2955.058350,3146.175293 
	C2978.676025,3127.541260 3000.319092,3106.841309 3019.966797,3084.052979 
	C3066.692383,3029.859375 3099.845215,2967.954834 3123.813477,2900.881348 
	C3150.898438,2825.085693 3164.939209,2746.561035 3171.107422,2666.595703 
	C3177.999512,2577.247070 3174.629395,2488.114502 3162.876953,2399.281738 
	C3162.427002,2395.881836 3159.241211,2392.014648 3164.371826,2388.047607 
	C3169.611816,2391.579834 3175.101074,2395.168457 3180.476318,2398.920898 
	C3224.178955,2429.430420 3267.834717,2460.008057 3311.605469,2490.419434 
	C3314.582031,2492.487549 3317.309326,2496.504150 3323.427979,2493.400391 
	C3323.427979,2484.968750 3323.515137,2475.808838 3323.414551,2466.650879 
	C3322.453613,2379.089111 3312.681885,2292.434326 3294.656494,2206.825439 
	C3259.743408,2041.010132 3202.285645,1883.230591 3123.601074,1733.166992 
	C3121.496338,1729.152832 3119.683350,1724.985718 3117.956543,1721.357422 
	C3120.007080,1716.669800 3121.563721,1713.005005 3123.203369,1709.377808 
	C3160.538330,1626.777466 3192.422852,1542.172729 3217.765137,1455.090576 
	C3253.647461,1331.789429 3276.019775,1206.102295 3282.883057,1077.916504 
	C3289.533203,953.710144 3283.151611,830.101257 3259.556641,707.718445 
	C3248.835449,652.108826 3235.328369,597.190674 3216.145020,543.803833 
	C3213.929199,537.637329 3211.321777,531.611450 3208.479736,524.474792 
	C3189.203857,526.048218 3170.623291,526.841370 3152.241943,529.192932 
	C3080.479736,538.373962 3011.557861,557.924744 2945.101318,586.529785 
	C2858.847656,623.656006 2780.042725,673.041077 2706.669678,731.239746 
	C2575.583984,835.215881 2464.998779,958.168579 2370.564697,1095.979004 
	C2366.914062,1101.306519 2364.889160,1108.219116 2357.991699,1111.010132 
	C2329.458740,1093.883057 2297.739502,1086.388550 2265.683105,1080.112793 
	C2232.977051,1073.709961 2199.943115,1069.603638 2166.747314,1066.571045 
	C2118.936279,1062.203857 2071.114258,1058.270508 2023.049194,1060.133423 
	C1965.079834,1062.380127 1907.291504,1067.103027 1850.054321,1076.664185 
	C1811.336182,1083.131958 1772.774780,1090.865234 1737.730469,1111.597900 
	C1734.741943,1107.618530 1731.808472,1104.059570 1729.246704,1100.250732 
	C1662.788452,1001.440552 1586.501831,910.843872 1500.997314,828.038879 
	C1422.169556,751.699951 1336.583496,684.143433 1240.606079,630.362427 
	C1137.058350,572.339417 1027.224121,534.200989 908.062012,525.802979 
	C901.540161,525.343323 894.940735,523.482971 886.932983,526.885986 
	C882.063965,541.020081 876.526733,555.965027 871.746704,571.148438 
	C834.070557,690.824524 816.673828,813.845703 812.486877,938.873535 
	C810.209900,1006.868103 812.544861,1074.769653 819.179565,1142.568237 
	C825.611389,1208.294312 835.604431,1273.412964 849.549744,1337.901611 
	C877.087463,1465.247314 918.798767,1587.918091 972.615051,1706.520630 
	C975.034912,1711.853760 977.288208,1717.262207 979.268982,1721.828491 
	C977.482849,1725.527100 976.392578,1727.958252 975.158997,1730.314453 
	C881.456116,1909.303101 816.104492,2097.672363 786.777527,2298.047119 
	C777.781128,2359.513916 773.852661,2421.269775 774.072205,2483.335449 
	C774.085388,2487.063477 774.750671,2490.789307 775.292725,2496.372803 
	C786.337219,2490.854736 794.348694,2483.985352 802.990723,2478.187744 
	C811.841431,2472.249756 820.511108,2466.041260 829.246887,2459.932617 
	C837.982788,2453.823975 846.692444,2447.677734 855.432556,2441.574951 
	C864.172974,2435.472168 872.949097,2429.420898 881.687317,2423.315186 
	C890.425293,2417.209473 898.994690,2410.849854 907.898376,2404.998047 
	C916.622681,2399.263916 924.349792,2391.770020 935.321045,2387.906494 
	C935.321045,2391.057129 935.582581,2393.070312 935.282959,2394.996094 
	C926.347473,2452.423340 923.106689,2510.254395 922.818298,2568.303711 
	C922.379578,2656.596680 930.362671,2743.947021 951.894531,2829.795410 
	C969.507446,2900.018799 995.594238,2966.675293 1035.017578,3027.743408 
	C1065.668335,3075.222656 1103.023071,3116.545410 1148.063477,3150.774902 
	C1150.850464,3152.892822 1154.595337,3153.750244 1157.852417,3155.175781 
	C1162.791138,3125.525391 1166.854980,3097.158447 1172.402832,3069.084473 
	C1176.782593,3046.920166 1182.858643,3025.083252 1188.532837,3003.191895 
	C1189.310791,3000.190430 1192.122192,2997.715820 1194.605957,2994.104980 
	C1195.471313,2997.136230 1195.921143,2998.391602 1196.185791,2999.684570 
	C1215.652954,3094.789307 1252.081909,3182.822510 1306.765381,3263.090332 
	C1379.835327,3370.347168 1476.795166,3447.559814 1598.379761,3493.481201 
	C1605.112915,3496.024170 1611.582520,3499.781250 1619.726562,3499.543701 
	C1621.655640,3482.531250 1617.404297,3466.214111 1616.205566,3449.725342 
	C1615.046509,3433.780273 1612.921387,3417.902344 1611.900269,3401.951416 
	C1610.864380,3385.769775 1606.346802,3369.733154 1608.546631,3351.638184 
	C1615.541870,3356.378906 1618.888184,3362.038574 1622.978027,3366.917236 
	C1692.910278,3450.335938 1773.183472,3521.808350 1866.976685,3577.536133 
	C1919.893433,3608.977051 1975.753906,3633.581787 2035.545776,3648.988770 
	C2044.267700,3651.236328 2052.061523,3651.458740 2060.864014,3649.187500 
	C2112.755127,3635.798828 2161.799561,3615.471436 2208.680420,3589.768066 
	C2285.834229,3547.466309 2354.031006,3493.409424 2415.782959,3431.011963 
	C2441.104980,3405.424805 2465.679932,3379.147217 2486.602051,3350.313965 
z"></path>
  <path fill="#FDFDFD" fill-rule="evenodd" opacity="1.000000" stroke="none" d="
z"></path>
  <path fill="#FDFDFD" fill-rule="evenodd" opacity="1.000000" stroke="none" d="
z"></path>
  <path fill="#FEFEFE" fill-rule="evenodd" opacity="1.000000" stroke="none" d="
z"></path>
  <path fill="#FEFEFE" fill-rule="evenodd" opacity="1.000000" stroke="none" d="
z"></path>
  <path fill="#FEFEFE" fill-rule="evenodd" opacity="1.000000" stroke="none" d="
z"></path>
  <path fill="#FDFDFD" fill-rule="evenodd" opacity="1.000000" stroke="none" d="
z"></path>
  <path fill-rule="evenodd" opacity="1.000000" stroke="none" d="
M2486.936523,3349.974121 
	C2465.679932,3379.147217 2441.104980,3405.424805 2415.782959,3431.011963 
	C2354.031006,3493.409424 2285.834229,3547.466309 2208.680420,3589.768066 
	C2161.799561,3615.471436 2112.755127,3635.798828 2060.864014,3649.187500 
	C2052.061523,3651.458740 2044.267700,3651.236328 2035.545776,3648.988770 
	C1975.753906,3633.581787 1919.893433,3608.977051 1866.976685,3577.536133 
	C1773.183472,3521.808350 1692.910278,3450.335938 1622.978027,3366.917236 
	C1618.888184,3362.038574 1615.541870,3356.378906 1608.546631,3351.638184 
	C1606.346802,3369.733154 1610.864380,3385.769775 1611.900269,3401.951416 
	C1612.921387,3417.902344 1615.046509,3433.780273 1616.205566,3449.725342 
	C1617.404297,3466.214111 1621.655640,3482.531250 1619.726562,3499.543701 
	C1611.582520,3499.781250 1605.112915,3496.024170 1598.379761,3493.481201 
	C1476.795166,3447.559814 1379.835327,3370.347168 1306.765381,3263.090332 
	C1252.081909,3182.822510 1215.652954,3094.789307 1196.185791,2999.684570 
	C1195.921143,2998.391602 1195.471313,2997.136230 1194.605957,2994.104980 
	C1192.122192,2997.715820 1189.310791,3000.190430 1188.532837,3003.191895 
	C1182.858643,3025.083252 1176.782593,3046.920166 1172.402832,3069.084473 
	C1166.854980,3097.158447 1162.791138,3125.525391 1157.852417,3155.175781 
	C1154.595337,3153.750244 1150.850464,3152.892822 1148.063477,3150.774902 
	C1103.023071,3116.545410 1065.668335,3075.222656 1035.017578,3027.743408 
	C995.594238,2966.675293 969.507446,2900.018799 951.894531,2829.795410 
	C930.362671,2743.947021 922.379578,2656.596680 922.818298,2568.303711 
	C923.106689,2510.254395 926.347473,2452.423340 935.282959,2394.996094 
	C935.582581,2393.070312 935.321045,2391.057129 935.321045,2387.906494 
	C924.349792,2391.770020 916.622681,2399.263916 907.898376,2404.998047 
	C898.994690,2410.849854 890.425293,2417.209473 881.687317,2423.315186 
	C872.949097,2429.420898 864.172974,2435.472168 855.432556,2441.574951 
	C846.692444,2447.677734 837.982788,2453.823975 829.246887,2459.932617 
	C820.511108,2466.041260 811.841431,2472.249756 802.990723,2478.187744 
	C794.348694,2483.985352 786.337219,2490.854736 775.292725,2496.372803 
	C774.750671,2490.789307 774.085388,2487.063477 774.072205,2483.335449 
	C773.852661,2421.269775 777.781128,2359.513916 786.777527,2298.047119 
	C816.104492,2097.672363 881.456116,1909.303101 975.158997,1730.314453 
	C976.392578,1727.958252 977.482849,1725.527100 979.268982,1721.828491 
	C977.288208,1717.262207 975.034912,1711.853760 972.615051,1706.520630 
	C918.798767,1587.918091 877.087463,1465.247314 849.549744,1337.901611 
	C835.604431,1273.412964 825.611389,1208.294312 819.179565,1142.568237 
	C812.544861,1074.769653 810.209900,1006.868103 812.486877,938.873535 
	C816.673828,813.845703 834.070557,690.824524 871.746704,571.148438 
	C876.526733,555.965027 882.063965,541.020081 886.932983,526.885986 
	C894.940735,523.482971 901.540161,525.343323 908.062012,525.802979 
	C1027.224121,534.200989 1137.058350,572.339417 1240.606079,630.362427 
	C1336.583496,684.143433 1422.169556,751.699951 1500.997314,828.038879 
	C1586.501831,910.843872 1662.788452,1001.440552 1729.246704,1100.250732 
	C1731.808472,1104.059570 1734.741943,1107.618530 1737.730469,1111.597900 
	C1772.774780,1090.865234 1811.336182,1083.131958 1850.054321,1076.664185 
	C1907.291504,1067.103027 1965.079834,1062.380127 2023.049194,1060.133423 
	C2071.114258,1058.270508 2118.936279,1062.203857 2166.747314,1066.571045 
	C2199.943115,1069.603638 2232.977051,1073.709961 2265.683105,1080.112793 
	C2297.739502,1086.388550 2329.458740,1093.883057 2357.991699,1111.010132 
	C2364.889160,1108.219116 2366.914062,1101.306519 2370.564697,1095.979004 
	C2464.998779,958.168579 2575.583984,835.215881 2706.669678,731.239746 
	C2780.042725,673.041077 2858.847656,623.656006 2945.101318,586.529785 
	C3011.557861,557.924744 3080.479736,538.373962 3152.241943,529.192932 
	C3170.623291,526.841370 3189.203857,526.048218 3208.479736,524.474792 
	C3211.321777,531.611450 3213.929199,537.637329 3216.145020,543.803833 
	C3235.328369,597.190674 3248.835449,652.108826 3259.556641,707.718445 
	C3283.151611,830.101257 3289.533203,953.710144 3282.883057,1077.916504 
	C3276.019775,1206.102295 3253.647461,1331.789429 3217.765137,1455.090576 
	C3192.422852,1542.172729 3160.538330,1626.777466 3123.203369,1709.377808 
	C3121.563721,1713.005005 3120.007080,1716.669800 3117.956543,1721.357422 
	C3119.683350,1724.985718 3121.496338,1729.152832 3123.601074,1733.166992 
	C3202.285645,1883.230591 3259.743408,2041.010132 3294.656494,2206.825439 
	C3312.681885,2292.434326 3322.453613,2379.089111 3323.414551,2466.650879 
	C3323.515137,2475.808838 3323.427979,2484.968750 3323.427979,2493.400391 
	C3317.309326,2496.504150 3314.582031,2492.487549 3311.605469,2490.419434 
	C3267.834717,2460.008057 3224.178955,2429.430420 3180.476318,2398.920898 
	C3175.101074,2395.168457 3169.611816,2391.579834 3164.371826,2388.047607 
	C3159.241211,2392.014648 3162.427002,2395.881836 3162.876953,2399.281738 
	C3174.629395,2488.114502 3177.999512,2577.247070 3171.107422,2666.595703 
	C3164.939209,2746.561035 3150.898438,2825.085693 3123.813477,2900.881348 
	C3099.845215,2967.954834 3066.692383,3029.859375 3019.966797,3084.052979 
	C3000.319092,3106.841309 2978.676025,3127.541260 2955.058350,3146.175293 
	C2950.940918,3149.424072 2946.690918,3152.504883 2941.954346,3156.076660 
	C2936.639648,3150.815918 2937.108154,3144.702637 2936.316650,3139.118408 
	C2931.081299,3102.183105 2925.018555,3065.396484 2916.068604,3029.154785 
	C2913.679443,3019.479980 2910.641602,3009.951416 2907.520264,3000.481445 
	C2906.819336,2998.354736 2904.520996,2996.754639 2901.994385,2993.776367 
	C2888.770264,3062.583740 2866.441406,3126.408936 2835.365967,3187.092041 
	C2781.361572,3292.549561 2706.242920,3379.036865 2604.849854,3441.631592 
	C2567.899170,3464.443115 2528.904541,3483.025146 2487.942139,3497.453857 
	C2484.876709,3498.533447 2481.714844,3499.338867 2477.141602,3500.707764 
	C2476.925781,3495.891846 2476.306396,3492.175293 2476.667480,3488.556641 
	C2479.975342,3455.409180 2483.603271,3422.292725 2486.802490,3389.135254 
	C2487.951416,3377.228516 2488.187012,3365.233887 2487.684570,3351.674316 
	C2486.529297,3350.069336 2486.271973,3350.533203 2486.271973,3350.533203 
	C2486.271973,3350.533203 2486.936523,3349.974121 2486.936523,3349.974121 
M2712.194336,2757.588135 
	C2713.748779,2716.173584 2711.629150,2675.038818 2704.008057,2634.196289 
	C2692.072021,2570.231445 2667.700439,2511.920166 2627.063232,2460.701416 
	C2607.126465,2435.573242 2585.726807,2411.743896 2561.652588,2390.627197 
	C2530.102539,2362.953613 2498.013672,2335.856934 2465.422607,2309.416748 
	C2421.439209,2273.734619 2376.529785,2239.195557 2332.424072,2203.661865 
	C2249.062988,2136.502686 2206.747070,2047.072510 2192.286865,1942.824707 
	C2185.087158,1890.920288 2188.176270,1839.149780 2194.202637,1787.348633 
	C2198.589355,1749.645264 2204.411621,1712.059570 2205.251221,1674.000000 
	C2206.250488,1628.695068 2207.623047,1583.394531 2208.112305,1538.084351 
	C2208.255371,1524.845093 2206.623047,1511.475342 2204.636963,1498.341919 
	C2188.886719,1394.180298 2139.526855,1309.356934 2057.248047,1243.648560 
	C2054.720215,1241.629883 2051.935791,1239.932373 2048.683594,1237.677979 
	C2044.051514,1240.943359 2039.585938,1243.739990 2035.511475,1247.022217 
	C2014.164429,1264.218994 1994.505005,1283.189941 1977.405273,1304.629028 
	C1917.488647,1379.750366 1886.454712,1464.899902 1888.838623,1561.536255 
	C1889.249390,1578.192505 1889.515625,1594.853027 1890.038086,1611.505615 
	C1890.999390,1642.145874 1891.006714,1672.868652 1893.425293,1703.397339 
	C1896.369873,1740.567627 1901.555664,1777.555908 1905.480591,1814.653809 
	C1911.766968,1874.072510 1909.817017,1933.094727 1895.784790,1991.397705 
	C1875.695435,2074.867432 1834.922119,2145.807861 1768.121094,2200.797363 
	C1753.204346,2213.076660 1737.882324,2224.861816 1722.828735,2236.976074 
	C1668.839355,2280.423584 1614.535645,2323.490234 1561.047729,2367.546875 
	C1528.591309,2394.280518 1499.094849,2424.213379 1472.824585,2457.183594 
	C1445.197021,2491.857666 1423.252563,2529.704102 1409.188110,2571.871338 
	C1394.552490,2615.751709 1386.785645,2660.960449 1384.576782,2707.080078 
	C1381.945312,2762.027832 1388.455933,2816.104492 1400.812378,2869.628418 
	C1410.091675,2909.822266 1426.556641,2946.508057 1451.810303,2979.189453 
	C1454.253784,2982.351562 1456.457275,2985.703125 1458.960083,2988.815186 
	C1479.840332,3014.778076 1500.155273,3041.225342 1521.775757,3066.557861 
	C1647.157593,3213.465088 1807.147949,3292.354980 1999.053955,3307.025879 
	C2056.351074,3311.406006 2113.611572,3308.251709 2170.453857,3299.225586 
	C2277.184326,3282.276855 2373.339844,3240.684570 2459.122559,3175.083740 
	C2552.152832,3103.939941 2624.292236,3014.980957 2681.452881,2913.362061 
	C2684.671875,2907.639648 2686.906982,2901.249756 2688.843018,2894.938477 
	C2702.188721,2851.430664 2709.685059,2806.881836 2712.194336,2757.588135 
M1467.469238,1114.570312 
	C1412.309937,1050.236450 1353.912598,989.044006 1290.561523,932.686035 
	C1241.190552,888.764893 1189.437622,847.994446 1132.379883,814.337280 
	C1101.915039,796.366699 1070.287476,780.855408 1036.616089,769.797913 
	C1033.210571,768.679504 1029.397949,768.800781 1025.288696,768.285889 
	C1016.910278,818.305176 1012.075256,867.338074 1008.840576,916.471985 
	C1003.978821,990.321045 1002.502686,1064.212280 1007.085571,1138.223755 
	C1011.086975,1202.843994 1018.522705,1266.914062 1032.190186,1330.188599 
	C1045.303589,1390.898560 1063.994995,1449.783569 1091.768555,1505.539062 
	C1094.950562,1511.927002 1098.555664,1518.104126 1102.864624,1526.035767 
	C1107.682129,1520.371338 1111.624146,1516.125732 1115.134399,1511.549072 
	C1150.839966,1464.996704 1187.905273,1419.574951 1227.539062,1376.292603 
	C1251.858887,1349.733887 1277.015381,1324.013428 1304.643555,1300.830811 
	C1319.466797,1288.392822 1334.887939,1276.819946 1352.068604,1267.725342 
	C1354.460693,1266.459106 1356.214600,1263.987061 1359.023315,1261.364136 
	C1329.373047,1252.503418 1301.325073,1244.137939 1273.288696,1235.733521 
	C1264.366699,1233.058960 1255.370972,1230.575928 1246.599731,1227.467285 
	C1238.100464,1224.455078 1231.822876,1218.673462 1228.158447,1210.249512 
	C1218.197388,1187.351074 1235.860352,1164.550659 1258.230591,1163.263428 
	C1332.058350,1159.015137 1405.794678,1153.173218 1479.557739,1147.826660 
	C1483.180298,1147.564087 1487.477295,1149.122314 1490.241943,1145.317871 
	C1490.282104,1144.528687 1490.591309,1143.694702 1490.303955,1143.328613 
	C1483.329468,1134.443726 1476.291504,1125.608643 1467.469238,1114.570312 
M2767.030518,969.028381 
	C2710.325684,1023.611755 2656.298096,1080.666016 2607.275879,1142.327026 
	C2606.669434,1143.089966 2607.200439,1144.757324 2607.200439,1146.919556 
	C2628.266357,1148.520142 2649.332764,1150.241821 2670.417236,1151.697998 
	C2716.950439,1154.911987 2763.495605,1157.952759 2810.029541,1161.154541 
	C2821.329102,1161.931885 2832.658447,1162.650269 2843.877686,1164.127319 
	C2858.525635,1166.055542 2869.250732,1177.194824 2871.475098,1191.761963 
	C2873.663086,1206.091431 2866.438477,1220.128296 2853.101807,1226.277466 
	C2847.703857,1228.766235 2841.821045,1230.247070 2836.094482,1231.972534 
	C2803.673340,1241.740845 2771.232666,1251.444336 2738.209717,1261.346436 
	C2739.861572,1263.433594 2740.737793,1265.559082 2742.294434,1266.357788 
	C2772.323730,1281.762329 2797.486816,1303.617188 2821.277344,1326.992920 
	C2842.181152,1347.531860 2862.468994,1368.751099 2882.165771,1390.453125 
	C2918.014160,1429.951416 2951.357910,1471.559570 2983.762451,1513.920654 
	C2986.760254,1517.839355 2990.385498,1521.277832 2994.404541,1525.691406 
	C2997.187500,1520.715210 2999.213867,1517.292236 3001.053955,1513.771973 
	C3025.227539,1467.522705 3042.605225,1418.681519 3055.750732,1368.315674 
	C3079.256348,1278.254028 3089.383301,1186.358276 3091.899170,1093.542847 
	C3093.615723,1030.215454 3092.565674,966.883728 3087.284668,903.736938 
	C3084.010498,864.581848 3079.191406,825.553284 3074.824219,786.494995 
	C3074.115967,780.160095 3072.148438,773.966003 3070.643066,767.166748 
	C3066.039795,768.377075 3062.800537,769.045227 3059.681152,770.076721 
	C3014.444580,785.034119 2973.082275,807.716736 2933.472656,833.792664 
	C2874.267578,872.768616 2820.448975,918.416504 2767.030518,969.028381 
M2668.264648,1955.393799 
	C2666.795166,1948.237305 2665.843018,1940.927490 2663.774902,1933.948364 
	C2645.880615,1873.557739 2583.555176,1824.250000 2505.617676,1841.787354 
	C2424.458740,1860.049561 2393.281006,1937.482056 2402.848633,1993.332153 
	C2412.074951,2047.190186 2455.641846,2095.057617 2513.686523,2104.579834 
	C2571.749023,2114.104980 2630.393066,2083.634277 2655.941650,2030.877197 
	C2666.979492,2008.084473 2670.800781,1984.121826 2668.264648,1955.393799 
M1439.120483,2026.186279 
	C1441.156372,2030.372925 1442.953613,2034.696411 1445.264160,2038.725586 
	C1473.344482,2087.693115 1528.824219,2112.279541 1580.428467,2104.995850 
	C1658.702148,2093.947998 1707.804810,2017.327515 1693.275757,1946.455566 
	C1681.626831,1889.633911 1633.387451,1845.724487 1578.379761,1839.401978 
	C1511.161987,1831.676270 1458.440552,1871.471802 1438.163208,1920.306274 
	C1423.944092,1954.551147 1424.137329,1989.000732 1439.120483,2026.186279 
z" style="fill: rgb(14, 84, 232);"></path>
  <path fill="#FEFEFE" fill-rule="evenodd" opacity="1.000000" stroke="none" d="
M2712.134277,2759.521729 
	C2709.685059,2806.881836 2702.188721,2851.430664 2688.843018,2894.938477 
	C2686.906982,2901.249756 2684.671875,2907.639648 2681.452881,2913.362061 
	C2624.292236,3014.980957 2552.152832,3103.939941 2459.122559,3175.083740 
	C2373.339844,3240.684570 2277.184326,3282.276855 2170.453857,3299.225586 
	C2113.611572,3308.251709 2056.351074,3311.406006 1999.053955,3307.025879 
	C1807.147949,3292.354980 1647.157593,3213.465088 1521.775757,3066.557861 
	C1500.155273,3041.225342 1479.840332,3014.778076 1458.960083,2988.815186 
	C1456.457275,2985.703125 1454.253784,2982.351562 1451.810303,2979.189453 
	C1426.556641,2946.508057 1410.091675,2909.822266 1400.812378,2869.628418 
	C1388.455933,2816.104492 1381.945312,2762.027832 1384.576782,2707.080078 
	C1386.785645,2660.960449 1394.552490,2615.751709 1409.188110,2571.871338 
	C1423.252563,2529.704102 1445.197021,2491.857666 1472.824585,2457.183594 
	C1499.094849,2424.213379 1528.591309,2394.280518 1561.047729,2367.546875 
	C1614.535645,2323.490234 1668.839355,2280.423584 1722.828735,2236.976074 
	C1737.882324,2224.861816 1753.204346,2213.076660 1768.121094,2200.797363 
	C1834.922119,2145.807861 1875.695435,2074.867432 1895.784790,1991.397705 
	C1909.817017,1933.094727 1911.766968,1874.072510 1905.480591,1814.653809 
	C1901.555664,1777.555908 1896.369873,1740.567627 1893.425293,1703.397339 
	C1891.006714,1672.868652 1890.999390,1642.145874 1890.038086,1611.505615 
	C1889.515625,1594.853027 1889.249390,1578.192505 1888.838623,1561.536255 
	C1886.454712,1464.899902 1917.488647,1379.750366 1977.405273,1304.629028 
	C1994.505005,1283.189941 2014.164429,1264.218994 2035.511475,1247.022217 
	C2039.585938,1243.739990 2044.051514,1240.943359 2048.683594,1237.677979 
	C2051.935791,1239.932373 2054.720215,1241.629883 2057.248047,1243.648560 
	C2139.526855,1309.356934 2188.886719,1394.180298 2204.636963,1498.341919 
	C2206.623047,1511.475342 2208.255371,1524.845093 2208.112305,1538.084351 
	C2207.623047,1583.394531 2206.250488,1628.695068 2205.251221,1674.000000 
	C2204.411621,1712.059570 2198.589355,1749.645264 2194.202637,1787.348633 
	C2188.176270,1839.149780 2185.087158,1890.920288 2192.286865,1942.824707 
	C2206.747070,2047.072510 2249.062988,2136.502686 2332.424072,2203.661865 
	C2376.529785,2239.195557 2421.439209,2273.734619 2465.422607,2309.416748 
	C2498.013672,2335.856934 2530.102539,2362.953613 2561.652588,2390.627197 
	C2585.726807,2411.743896 2607.126465,2435.573242 2627.063232,2460.701416 
	C2667.700439,2511.920166 2692.072021,2570.231445 2704.008057,2634.196289 
	C2711.629150,2675.038818 2713.748779,2716.173584 2712.134277,2759.521729 
M2245.671875,2527.661377 
	C2250.263184,2522.834961 2255.071045,2518.194824 2259.409912,2513.151123 
	C2283.475342,2485.178711 2299.459961,2453.678711 2301.772217,2416.138672 
	C2304.056641,2379.045898 2291.814941,2348.182861 2263.099854,2324.191162 
	C2248.122559,2311.677490 2231.141113,2302.708008 2213.075684,2295.533447 
	C2179.968994,2282.385986 2145.331787,2275.563721 2110.112061,2272.762207 
	C2059.567627,2268.741943 2008.917847,2268.595947 1958.588623,2276.240723 
	C1926.228760,2281.156250 1894.672729,2289.078369 1865.207886,2303.939697 
	C1849.011230,2312.108887 1834.184082,2322.134033 1821.968750,2335.670410 
	C1805.291748,2354.150635 1796.397095,2375.744629 1795.272583,2400.766846 
	C1793.613159,2437.684082 1805.294434,2470.160889 1826.829468,2499.564209 
	C1841.924683,2520.174561 1860.347168,2537.428467 1880.741943,2552.663086 
	C1914.591431,2577.947998 1951.788940,2597.040283 1991.083374,2612.246338 
	C1997.876953,2614.875000 2004.664673,2617.519043 2011.905640,2620.331055 
	C2011.905640,2626.025391 2012.316406,2631.318115 2011.841797,2636.530273 
	C2007.593140,2683.186279 1998.269043,2728.679443 1979.802734,2771.962646 
	C1969.815430,2795.372070 1957.190308,2817.231934 1939.954712,2836.150635 
	C1911.120850,2867.799561 1875.607056,2884.678467 1832.426636,2885.137207 
	C1805.534790,2885.423096 1779.352051,2880.839844 1753.445435,2874.536621 
	C1707.296753,2863.308350 1665.974976,2842.874756 1631.997070,2808.954346 
	C1629.175537,2806.137451 1626.270386,2803.314941 1623.031494,2801.021240 
	C1608.369751,2790.636963 1592.342163,2788.472656 1575.623901,2794.792480 
	C1540.640625,2808.016113 1530.919189,2851.754150 1557.626709,2878.288574 
	C1569.855469,2890.438232 1583.770142,2901.011963 1597.578735,2911.427490 
	C1635.554321,2940.070801 1676.554688,2963.249512 1721.991089,2978.037109 
	C1766.475342,2992.514648 1811.720215,2996.962402 1857.934692,2988.140869 
	C1896.515137,2980.776611 1931.235962,2964.562744 1963.152832,2942.004150 
	C1989.972656,2923.047607 2013.443237,2900.458740 2034.880859,2875.669678 
	C2039.154907,2870.727295 2043.621460,2865.951172 2048.761475,2860.253418 
	C2054.236328,2866.547607 2058.913818,2871.963623 2063.632324,2877.343750 
	C2092.829346,2910.634521 2125.380615,2939.859375 2164.604004,2961.089111 
	C2203.429199,2982.103516 2244.676270,2992.973145 2289.003662,2992.577393 
	C2321.367188,2992.288330 2352.567139,2986.183594 2382.855957,2975.451660 
	C2440.819824,2954.913574 2491.074219,2921.580078 2536.822266,2881.027832 
	C2539.791748,2878.395264 2542.635498,2875.451660 2544.881348,2872.199707 
	C2556.455322,2855.440186 2558.317627,2837.608887 2548.964600,2819.378906 
	C2540.056641,2802.016602 2525.466309,2792.731689 2505.847656,2791.625000 
	C2490.197266,2790.742188 2477.399414,2796.675293 2466.416016,2807.558350 
	C2450.254883,2823.571777 2432.598877,2837.733154 2412.384033,2848.350098 
	C2366.764404,2872.309814 2317.958740,2884.132324 2266.590576,2884.964111 
	C2221.881348,2885.688477 2185.242676,2867.789062 2155.734863,2834.611328 
	C2140.995850,2818.039307 2129.658691,2799.271240 2120.477051,2779.196289 
	C2103.165039,2741.345703 2093.095947,2701.434326 2088.027832,2660.268555 
	C2086.419922,2647.207520 2082.671875,2634.159180 2085.249268,2620.230469 
	C2092.149902,2617.555908 2098.952393,2614.930176 2105.746582,2612.283691 
	C2156.393799,2592.556641 2203.628174,2567.130615 2245.671875,2527.661377 
z"></path>
  <path fill="#FDFDFD" fill-rule="evenodd" opacity="1.000000" stroke="none" d="
M1468.366943,1115.667480 
	C1476.291504,1125.608643 1483.329468,1134.443726 1490.303955,1143.328613 
	C1490.591309,1143.694702 1490.282104,1144.528687 1490.241943,1145.317871 
	C1487.477295,1149.122314 1483.180298,1147.564087 1479.557739,1147.826660 
	C1405.794678,1153.173218 1332.058350,1159.015137 1258.230591,1163.263428 
	C1235.860352,1164.550659 1218.197388,1187.351074 1228.158447,1210.249512 
	C1231.822876,1218.673462 1238.100464,1224.455078 1246.599731,1227.467285 
	C1255.370972,1230.575928 1264.366699,1233.058960 1273.288696,1235.733521 
	C1301.325073,1244.137939 1329.373047,1252.503418 1359.023315,1261.364136 
	C1356.214600,1263.987061 1354.460693,1266.459106 1352.068604,1267.725342 
	C1334.887939,1276.819946 1319.466797,1288.392822 1304.643555,1300.830811 
	C1277.015381,1324.013428 1251.858887,1349.733887 1227.539062,1376.292603 
	C1187.905273,1419.574951 1150.839966,1464.996704 1115.134399,1511.549072 
	C1111.624146,1516.125732 1107.682129,1520.371338 1102.864624,1526.035767 
	C1098.555664,1518.104126 1094.950562,1511.927002 1091.768555,1505.539062 
	C1063.994995,1449.783569 1045.303589,1390.898560 1032.190186,1330.188599 
	C1018.522705,1266.914062 1011.086975,1202.843994 1007.085571,1138.223755 
	C1002.502686,1064.212280 1003.978821,990.321045 1008.840576,916.471985 
	C1012.075256,867.338074 1016.910278,818.305176 1025.288696,768.285889 
	C1029.397949,768.800781 1033.210571,768.679504 1036.616089,769.797913 
	C1070.287476,780.855408 1101.915039,796.366699 1132.379883,814.337280 
	C1189.437622,847.994446 1241.190552,888.764893 1290.561523,932.686035 
	C1353.912598,989.044006 1412.309937,1050.236450 1468.366943,1115.667480 
z"></path>
  <path fill="#FDFDFD" fill-rule="evenodd" opacity="1.000000" stroke="none" d="
M2768.067871,968.064880 
	C2820.448975,918.416504 2874.267578,872.768616 2933.472656,833.792664 
	C2973.082275,807.716736 3014.444580,785.034119 3059.681152,770.076721 
	C3062.800537,769.045227 3066.039795,768.377075 3070.643066,767.166748 
	C3072.148438,773.966003 3074.115967,780.160095 3074.824219,786.494995 
	C3079.191406,825.553284 3084.010498,864.581848 3087.284668,903.736938 
	C3092.565674,966.883728 3093.615723,1030.215454 3091.899170,1093.542847 
	C3089.383301,1186.358276 3079.256348,1278.254028 3055.750732,1368.315674 
	C3042.605225,1418.681519 3025.227539,1467.522705 3001.053955,1513.771973 
	C2999.213867,1517.292236 2997.187500,1520.715210 2994.404541,1525.691406 
	C2990.385498,1521.277832 2986.760254,1517.839355 2983.762451,1513.920654 
	C2951.357910,1471.559570 2918.014160,1429.951416 2882.165771,1390.453125 
	C2862.468994,1368.751099 2842.181152,1347.531860 2821.277344,1326.992920 
	C2797.486816,1303.617188 2772.323730,1281.762329 2742.294434,1266.357788 
	C2740.737793,1265.559082 2739.861572,1263.433594 2738.209717,1261.346436 
	C2771.232666,1251.444336 2803.673340,1241.740845 2836.094482,1231.972534 
	C2841.821045,1230.247070 2847.703857,1228.766235 2853.101807,1226.277466 
	C2866.438477,1220.128296 2873.663086,1206.091431 2871.475098,1191.761963 
	C2869.250732,1177.194824 2858.525635,1166.055542 2843.877686,1164.127319 
	C2832.658447,1162.650269 2821.329102,1161.931885 2810.029541,1161.154541 
	C2763.495605,1157.952759 2716.950439,1154.911987 2670.417236,1151.697998 
	C2649.332764,1150.241821 2628.266357,1148.520142 2607.200439,1146.919556 
	C2607.200439,1144.757324 2606.669434,1143.089966 2607.275879,1142.327026 
	C2656.298096,1080.666016 2710.325684,1023.611755 2768.067871,968.064880 
z"></path>
  <path fill="#FDFDFD" fill-rule="evenodd" opacity="1.000000" stroke="none" d="
M2668.420410,1957.219971 
	C2670.800781,1984.121826 2666.979492,2008.084473 2655.941650,2030.877197 
	C2630.393066,2083.634277 2571.749023,2114.104980 2513.686523,2104.579834 
	C2455.641846,2095.057617 2412.074951,2047.190186 2402.848633,1993.332153 
	C2393.281006,1937.482056 2424.458740,1860.049561 2505.617676,1841.787354 
	C2583.555176,1824.250000 2645.880615,1873.557739 2663.774902,1933.948364 
	C2665.843018,1940.927490 2666.795166,1948.237305 2668.420410,1957.219971 
z"></path>
  <path fill="#FDFDFD" fill-rule="evenodd" opacity="1.000000" stroke="none" d="
M1438.406982,2024.814087 
	C1424.137329,1989.000732 1423.944092,1954.551147 1438.163208,1920.306274 
	C1458.440552,1871.471802 1511.161987,1831.676270 1578.379761,1839.401978 
	C1633.387451,1845.724487 1681.626831,1889.633911 1693.275757,1946.455566 
	C1707.804810,2017.327515 1658.702148,2093.947998 1580.428467,2104.995850 
	C1528.824219,2112.279541 1473.344482,2087.693115 1445.264160,2038.725586 
	C1442.953613,2034.696411 1441.156372,2030.372925 1438.406982,2024.814087 
z"></path>
  <path fill="#FCFCFC" fill-rule="evenodd" opacity="1.000000" stroke="none" d="
M2486.769287,3350.144043 
	C2486.936523,3349.974121 2486.271973,3350.533203 2486.271973,3350.533203 
	C2486.271973,3350.533203 2486.529297,3350.069336 2486.329590,3350.158203 
	C2486.130127,3350.247314 2486.602051,3350.313965 2486.769287,3350.144043 
z"></path>
  <path fill-rule="evenodd" opacity="1.000000" stroke="none" d="
M2244.663574,2528.667480 
	C2203.628174,2567.130615 2156.393799,2592.556641 2105.746582,2612.283691 
	C2098.952393,2614.930176 2092.149902,2617.555908 2085.249268,2620.230469 
	C2082.671875,2634.159180 2086.419922,2647.207520 2088.027832,2660.268555 
	C2093.095947,2701.434326 2103.165039,2741.345703 2120.477051,2779.196289 
	C2129.658691,2799.271240 2140.995850,2818.039307 2155.734863,2834.611328 
	C2185.242676,2867.789062 2221.881348,2885.688477 2266.590576,2884.964111 
	C2317.958740,2884.132324 2366.764404,2872.309814 2412.384033,2848.350098 
	C2432.598877,2837.733154 2450.254883,2823.571777 2466.416016,2807.558350 
	C2477.399414,2796.675293 2490.197266,2790.742188 2505.847656,2791.625000 
	C2525.466309,2792.731689 2540.056641,2802.016602 2548.964600,2819.378906 
	C2558.317627,2837.608887 2556.455322,2855.440186 2544.881348,2872.199707 
	C2542.635498,2875.451660 2539.791748,2878.395264 2536.822266,2881.027832 
	C2491.074219,2921.580078 2440.819824,2954.913574 2382.855957,2975.451660 
	C2352.567139,2986.183594 2321.367188,2992.288330 2289.003662,2992.577393 
	C2244.676270,2992.973145 2203.429199,2982.103516 2164.604004,2961.089111 
	C2125.380615,2939.859375 2092.829346,2910.634521 2063.632324,2877.343750 
	C2058.913818,2871.963623 2054.236328,2866.547607 2048.761475,2860.253418 
	C2043.621460,2865.951172 2039.154907,2870.727295 2034.880859,2875.669678 
	C2013.443237,2900.458740 1989.972656,2923.047607 1963.152832,2942.004150 
	C1931.235962,2964.562744 1896.515137,2980.776611 1857.934692,2988.140869 
	C1811.720215,2996.962402 1766.475342,2992.514648 1721.991089,2978.037109 
	C1676.554688,2963.249512 1635.554321,2940.070801 1597.578735,2911.427490 
	C1583.770142,2901.011963 1569.855469,2890.438232 1557.626709,2878.288574 
	C1530.919189,2851.754150 1540.640625,2808.016113 1575.623901,2794.792480 
	C1592.342163,2788.472656 1608.369751,2790.636963 1623.031494,2801.021240 
	C1626.270386,2803.314941 1629.175537,2806.137451 1631.997070,2808.954346 
	C1665.974976,2842.874756 1707.296753,2863.308350 1753.445435,2874.536621 
	C1779.352051,2880.839844 1805.534790,2885.423096 1832.426636,2885.137207 
	C1875.607056,2884.678467 1911.120850,2867.799561 1939.954712,2836.150635 
	C1957.190308,2817.231934 1969.815430,2795.372070 1979.802734,2771.962646 
	C1998.269043,2728.679443 2007.593140,2683.186279 2011.841797,2636.530273 
	C2012.316406,2631.318115 2011.905640,2626.025391 2011.905640,2620.331055 
	C2004.664673,2617.519043 1997.876953,2614.875000 1991.083374,2612.246338 
	C1951.788940,2597.040283 1914.591431,2577.947998 1880.741943,2552.663086 
	C1860.347168,2537.428467 1841.924683,2520.174561 1826.829468,2499.564209 
	C1805.294434,2470.160889 1793.613159,2437.684082 1795.272583,2400.766846 
	C1796.397095,2375.744629 1805.291748,2354.150635 1821.968750,2335.670410 
	C1834.184082,2322.134033 1849.011230,2312.108887 1865.207886,2303.939697 
	C1894.672729,2289.078369 1926.228760,2281.156250 1958.588623,2276.240723 
	C2008.917847,2268.595947 2059.567627,2268.741943 2110.112061,2272.762207 
	C2145.331787,2275.563721 2179.968994,2282.385986 2213.075684,2295.533447 
	C2231.141113,2302.708008 2248.122559,2311.677490 2263.099854,2324.191162 
	C2291.814941,2348.182861 2304.056641,2379.045898 2301.772217,2416.138672 
	C2299.459961,2453.678711 2283.475342,2485.178711 2259.409912,2513.151123 
	C2255.071045,2518.194824 2250.263184,2522.834961 2244.663574,2528.667480 
z" style="fill: rgb(14, 84, 232);"></path>
</svg>