<svg xmlns="http://www.w3.org/2000/svg" xmlns:xlink="http://www.w3.org/1999/xlink" width="148" height="65" viewBox="0 0 1080 474.749983" preserveAspectRatio="xMidYMid meet" role="img" aria-label="NanoFreeze"><defs><g></g><clipPath id="_R_0_-d7ae40346d"><path d="M 0.285156 296.765625 L 520.835938 296.765625 L 520.835938 474 L 0.285156 474 Z M 0.285156 296.765625 " clip-rule="nonzero"></path></clipPath><clipPath id="_R_0_-bb038df085"><path d="M 0.285156 296.765625 C 0.285156 296.765625 21.292969 421.359375 153.785156 462.605469 C 211.164062 480.46875 273.070312 475.890625 328.410156 452.480469 C 348.582031 443.957031 370.398438 432.871094 389.859375 418.960938 C 444.058594 380.199219 520.550781 357.351562 520.550781 357.351562 C 520.550781 357.351562 475.613281 343.847656 404.472656 361.699219 C 382.601562 367.1875 361.515625 375.421875 341.335938 385.496094 C 301.773438 405.246094 193.191406 451.703125 112.996094 412.773438 C 113.003906 412.773438 39.921875 391.335938 0.285156 296.765625 " clip-rule="nonzero"></path></clipPath><clipPath id="_R_0_-294712fe40"><path d="M 0.285156 0.765625 L 520.570312 0.765625 L 520.570312 177.511719 L 0.285156 177.511719 Z M 0.285156 0.765625 " clip-rule="nonzero"></path></clipPath><clipPath id="_R_0_-a46d66b3b8"><path d="M 0.285156 0.765625 C 0.285156 0.765625 21.292969 125.359375 153.785156 166.605469 C 211.164062 184.46875 273.070312 179.890625 328.410156 156.480469 C 348.582031 147.957031 370.398438 136.871094 389.859375 122.960938 C 444.058594 84.199219 520.550781 61.351562 520.550781 61.351562 C 520.550781 61.351562 475.613281 47.847656 404.472656 65.699219 C 382.601562 71.1875 361.515625 79.421875 341.335938 89.496094 C 301.773438 109.246094 193.191406 155.703125 112.996094 116.773438 C 113.003906 116.773438 39.921875 95.335938 0.285156 0.765625 " clip-rule="nonzero"></path></clipPath><clipPath id="_R_0_-ac4238f3c1"><rect x="0" width="521" y="0" height="178"></rect></clipPath><clipPath id="_R_0_-b46a1f3fa8"><path d="M 0.285156 1 L 520.839844 1 L 520.839844 177.984375 L 0.285156 177.984375 Z M 0.285156 1 " clip-rule="nonzero"></path></clipPath><clipPath id="_R_0_-6c050e6c0c"><path d="M 0.285156 177.984375 C 0.285156 177.984375 21.292969 53.390625 153.785156 12.140625 C 211.164062 -5.710938 273.070312 -1.132812 328.410156 22.265625 C 348.582031 30.792969 370.398438 41.875 389.859375 55.789062 C 444.058594 94.539062 520.550781 117.394531 520.550781 117.394531 C 520.550781 117.394531 475.601562 130.898438 404.460938 113.039062 C 382.59375 107.550781 361.503906 99.316406 341.324219 89.242188 C 301.765625 69.492188 193.183594 23.035156 112.984375 61.964844 C 112.984375 61.964844 39.914062 83.402344 0.265625 177.972656 " clip-rule="nonzero"></path></clipPath><clipPath id="_R_0_-738d4dbd80"><path d="M 0.285156 0.199219 L 520.570312 0.199219 L 520.570312 176.984375 L 0.285156 176.984375 Z M 0.285156 0.199219 " clip-rule="nonzero"></path></clipPath><clipPath id="_R_0_-2876e4b340"><path d="M 0.285156 176.984375 C 0.285156 176.984375 21.292969 52.390625 153.785156 11.140625 C 211.164062 -6.710938 273.070312 -2.132812 328.410156 21.265625 C 348.582031 29.792969 370.398438 40.875 389.859375 54.789062 C 444.058594 93.539062 520.550781 116.394531 520.550781 116.394531 C 520.550781 116.394531 475.601562 129.898438 404.460938 112.039062 C 382.59375 106.550781 361.503906 98.316406 341.324219 88.242188 C 301.765625 68.492188 193.183594 22.035156 112.984375 60.964844 C 112.984375 60.964844 39.914062 82.402344 0.265625 176.972656 " clip-rule="nonzero"></path></clipPath><clipPath id="_R_0_-f6f2bfa189"><rect x="0" width="521" y="0" height="177"></rect></clipPath><clipPath id="_R_0_-40d7efa4d8"><path d="M 559.4375 297.898438 L 1079.714844 297.898438 L 1079.714844 474.5 L 559.4375 474.5 Z M 559.4375 297.898438 " clip-rule="nonzero"></path></clipPath><clipPath id="_R_0_-378ae4f7e6"><path d="M 1079.714844 297.898438 C 1079.714844 297.898438 1058.703125 422.492188 926.214844 463.742188 C 868.835938 481.601562 806.925781 477.023438 751.585938 453.617188 C 731.40625 445.09375 709.597656 434.007812 690.136719 420.09375 C 635.925781 381.347656 559.4375 358.488281 559.4375 358.488281 C 559.4375 358.488281 604.382812 344.984375 675.527344 362.84375 C 697.394531 368.332031 718.484375 376.566406 738.664062 386.644531 C 778.222656 406.390625 886.804688 452.847656 967.003906 413.917969 C 967.003906 413.917969 1040.074219 392.480469 1079.722656 297.910156 " clip-rule="nonzero"></path></clipPath><clipPath id="_R_0_-e6b175d058"><path d="M 0.4375 0.898438 L 520.714844 0.898438 L 520.714844 177.5 L 0.4375 177.5 Z M 0.4375 0.898438 " clip-rule="nonzero"></path></clipPath><clipPath id="_R_0_-93a65fd78d"><path d="M 520.714844 0.898438 C 520.714844 0.898438 499.703125 125.492188 367.214844 166.742188 C 309.835938 184.601562 247.925781 180.023438 192.585938 156.617188 C 172.40625 148.09375 150.597656 137.007812 131.136719 123.09375 C 76.925781 84.347656 0.4375 61.488281 0.4375 61.488281 C 0.4375 61.488281 45.382812 47.984375 116.527344 65.84375 C 138.394531 71.332031 159.484375 79.566406 179.664062 89.644531 C 219.222656 109.390625 327.804688 155.847656 408.003906 116.917969 C 408.003906 116.917969 481.074219 95.480469 520.722656 0.910156 " clip-rule="nonzero"></path></clipPath><clipPath id="_R_0_-2793086b82"><rect x="0" width="521" y="0" height="178"></rect></clipPath><clipPath id="_R_0_-87f1fa698b"><path d="M 559.4375 0 L 1079.714844 0 L 1079.714844 177 L 559.4375 177 Z M 559.4375 0 " clip-rule="nonzero"></path></clipPath><clipPath id="_R_0_-93c2de901e"><path d="M 1079.714844 176.847656 C 1079.714844 176.847656 1058.703125 52.253906 926.214844 11.003906 C 868.84375 -6.84375 806.9375 -2.269531 751.585938 21.128906 C 731.40625 29.65625 709.597656 40.730469 690.140625 54.652344 C 635.925781 93.410156 559.4375 116.257812 559.4375 116.257812 C 559.4375 116.257812 604.382812 129.761719 675.527344 111.902344 C 697.394531 106.414062 718.484375 98.179688 738.664062 88.105469 C 778.222656 68.363281 886.804688 21.910156 967.003906 60.839844 C 967.003906 60.839844 1040.074219 82.289062 1079.722656 176.859375 " clip-rule="nonzero"></path></clipPath><clipPath id="_R_0_-0f0593d3f8"><path d="M 0.4375 0 L 520.714844 0 L 520.714844 177 L 0.4375 177 Z M 0.4375 0 " clip-rule="nonzero"></path></clipPath><clipPath id="_R_0_-720afa2af8"><path d="M 520.714844 176.847656 C 520.714844 176.847656 499.703125 52.253906 367.214844 11.003906 C 309.84375 -6.84375 247.9375 -2.269531 192.585938 21.128906 C 172.40625 29.65625 150.597656 40.730469 131.140625 54.652344 C 76.925781 93.410156 0.4375 116.257812 0.4375 116.257812 C 0.4375 116.257812 45.382812 129.761719 116.527344 111.902344 C 138.394531 106.414062 159.484375 98.179688 179.664062 88.105469 C 219.222656 68.363281 327.804688 21.910156 408.003906 60.839844 C 408.003906 60.839844 481.074219 82.289062 520.722656 176.859375 " clip-rule="nonzero"></path></clipPath><clipPath id="_R_0_-a8dc07d32c"><rect x="0" width="521" y="0" height="177"></rect></clipPath></defs><g clip-path="url(#_R_0_-d7ae40346d)"><g clip-path="url(#_R_0_-bb038df085)"><g transform="matrix(1, 0, 0, 1, 0, 296)"><g clip-path="url(#_R_0_-ac4238f3c1)"><g clip-path="url(#_R_0_-294712fe40)"><g clip-path="url(#_R_0_-a46d66b3b8)"><path fill="currentColor" d="M 0.285156 0.765625 L 520.835938 0.765625 L 520.835938 177.503906 L 0.285156 177.503906 Z M 0.285156 0.765625 " fill-opacity="1" fill-rule="nonzero"></path></g></g></g></g></g></g><g clip-path="url(#_R_0_-b46a1f3fa8)"><g clip-path="url(#_R_0_-6c050e6c0c)"><g transform="matrix(1, 0, 0, 1, 0, 1)"><g clip-path="url(#_R_0_-f6f2bfa189)"><g clip-path="url(#_R_0_-738d4dbd80)"><g clip-path="url(#_R_0_-2876e4b340)"><path fill="currentColor" d="M 0.285156 0.246094 L 520.835938 0.246094 L 520.835938 176.984375 L 0.285156 176.984375 Z M 0.285156 0.246094 " fill-opacity="1" fill-rule="nonzero"></path></g></g></g></g></g></g><g clip-path="url(#_R_0_-40d7efa4d8)"><g clip-path="url(#_R_0_-378ae4f7e6)"><g transform="matrix(1, 0, 0, 1, 559, 297)"><g clip-path="url(#_R_0_-2793086b82)"><g clip-path="url(#_R_0_-e6b175d058)"><g clip-path="url(#_R_0_-93a65fd78d)"><path fill="currentColor" d="M 0.4375 0.898438 L 520.988281 0.898438 L 520.988281 177.640625 L 0.4375 177.640625 Z M 0.4375 0.898438 " fill-opacity="1" fill-rule="nonzero"></path></g></g></g></g></g></g><g clip-path="url(#_R_0_-87f1fa698b)"><g clip-path="url(#_R_0_-93c2de901e)"><g transform="matrix(1, 0, 0, 1, 559, 0)"><g clip-path="url(#_R_0_-a8dc07d32c)"><g clip-path="url(#_R_0_-0f0593d3f8)"><g clip-path="url(#_R_0_-720afa2af8)"><path fill="currentColor" d="M 0.4375 0.109375 L 520.988281 0.109375 L 520.988281 176.851562 L 0.4375 176.851562 Z M 0.4375 0.109375 " fill-opacity="1" fill-rule="nonzero"></path></g></g></g></g></g></g><g fill="currentColor" fill-opacity="1"><g transform="translate(9.801298, 276.979123)"><g><path d="M 12.203125 -82.125 L 66.78125 -5.640625 L 66.78125 -82.125 L 71.4375 -82.125 L 71.4375 0 L 64.28125 0 L 10.96875 -74.6875 L 10.96875 0 L 6.328125 0 L 6.328125 -82.125 Z M 12.203125 -82.125 "></path></g></g></g><g fill="currentColor" fill-opacity="1"><g transform="translate(134.538814, 276.979123)"><g><path d="M 44.953125 -40.703125 L 32.46875 -75.15625 L 19.921875 -40.703125 Z M 34.84375 -82.125 L 64.640625 0 L 59.765625 0 L 46.640625 -36.125 L 18.234375 -36.125 L 4.875 0 L -0.0625 0 L 30.078125 -82.125 Z M 34.84375 -82.125 "></path></g></g></g><g fill="currentColor" fill-opacity="1"><g transform="translate(246.326493, 276.979123)"><g><path d="M 12.203125 -82.125 L 66.78125 -5.640625 L 66.78125 -82.125 L 71.4375 -82.125 L 71.4375 0 L 64.28125 0 L 10.96875 -74.6875 L 10.96875 0 L 6.328125 0 L 6.328125 -82.125 Z M 12.203125 -82.125 "></path></g></g></g><g fill="currentColor" fill-opacity="1"><g transform="translate(371.063996, 276.979123)"><g><path d="M 45.703125 -83.28125 C 57.359375 -83.28125 67.300781 -79.164062 75.53125 -70.9375 C 83.757812 -62.707031 87.875 -52.785156 87.875 -41.171875 C 87.875 -29.515625 83.757812 -19.570312 75.53125 -11.34375 C 67.300781 -3.125 57.359375 0.984375 45.703125 0.984375 C 34.085938 0.984375 24.164062 -3.125 15.9375 -11.34375 C 7.707031 -19.570312 3.59375 -29.515625 3.59375 -41.171875 C 3.59375 -52.785156 7.707031 -62.707031 15.9375 -70.9375 C 24.164062 -79.164062 34.085938 -83.28125 45.703125 -83.28125 Z M 45.703125 -78.578125 C 35.398438 -78.578125 26.59375 -74.914062 19.28125 -67.59375 C 11.96875 -60.28125 8.3125 -51.472656 8.3125 -41.171875 C 8.3125 -30.835938 11.96875 -22.007812 19.28125 -14.6875 C 26.59375 -7.375 35.398438 -3.71875 45.703125 -3.71875 C 56.046875 -3.71875 64.875 -7.375 72.1875 -14.6875 C 79.5 -22.007812 83.15625 -30.835938 83.15625 -41.171875 C 83.15625 -51.472656 79.5 -60.28125 72.1875 -67.59375 C 64.875 -74.914062 56.046875 -78.578125 45.703125 -78.578125 Z M 45.703125 -78.578125 "></path></g></g></g><g fill="currentColor" fill-opacity="1"><g transform="translate(509.506273, 276.979123)"><g><path d="M 42.453125 -82.125 L 42.453125 -77.46875 L 11.15625 -77.46875 L 11.15625 -43.375 L 42.453125 -43.375 L 42.453125 -38.734375 L 11.15625 -38.734375 L 11.15625 0 L 6.5 0 L 6.5 -82.125 Z M 42.453125 -82.125 "></path></g></g></g><g fill="currentColor" fill-opacity="1"><g transform="translate(601.956285, 276.979123)"><g><path d="M 11.15625 -77.40625 L 11.15625 -33.15625 L 25.09375 -33.15625 C 31.164062 -33.15625 36.367188 -35.3125 40.703125 -39.625 C 45.046875 -43.945312 47.21875 -49.1875 47.21875 -55.34375 C 47.21875 -61.457031 45.046875 -66.660156 40.703125 -70.953125 C 36.367188 -75.253906 31.164062 -77.40625 25.09375 -77.40625 Z M 26.484375 -28.453125 L 11.15625 -28.453125 L 11.15625 0 L 6.5 0 L 6.5 -82.125 L 28.046875 -82.125 C 34.316406 -81.269531 39.640625 -78.65625 44.015625 -74.28125 C 49.242188 -69.007812 51.859375 -62.695312 51.859375 -55.34375 C 51.859375 -47.90625 49.242188 -41.578125 44.015625 -36.359375 C 40.378906 -32.710938 36.21875 -30.332031 31.53125 -29.21875 L 50.46875 0 L 44.78125 0 Z M 26.484375 -28.453125 "></path></g></g></g><g fill="currentColor" fill-opacity="1"><g transform="translate(704.626806, 276.979123)"><g><path d="M 47.5625 -82.125 L 47.5625 -77.46875 L 11.15625 -77.46875 L 11.15625 -43.375 L 47.5625 -43.375 L 47.5625 -38.734375 L 11.15625 -38.734375 L 11.15625 -4.640625 L 47.5625 -4.640625 L 47.5625 0 L 6.5 0 L 6.5 -82.125 Z M 47.5625 -82.125 "></path></g></g></g><g fill="currentColor" fill-opacity="1"><g transform="translate(805.67129, 276.979123)"><g><path d="M 47.5625 -82.125 L 47.5625 -77.46875 L 11.15625 -77.46875 L 11.15625 -43.375 L 47.5625 -43.375 L 47.5625 -38.734375 L 11.15625 -38.734375 L 11.15625 -4.640625 L 47.5625 -4.640625 L 47.5625 0 L 6.5 0 L 6.5 -82.125 Z M 47.5625 -82.125 "></path></g></g></g><g fill="currentColor" fill-opacity="1"><g transform="translate(906.715821, 276.979123)"><g><path d="M 49.59375 -77.46875 L 10.6875 -77.46875 L 10.6875 -82.125 L 57.546875 -82.125 L 12.78125 -4.640625 L 61.625 -4.640625 L 61.625 0 L 4.875 0 Z M 49.59375 -77.46875 "></path></g></g></g><g fill="currentColor" fill-opacity="1"><g transform="translate(1016.122586, 276.979123)"><g><path d="M 47.5625 -82.125 L 47.5625 -77.46875 L 11.15625 -77.46875 L 11.15625 -43.375 L 47.5625 -43.375 L 47.5625 -38.734375 L 11.15625 -38.734375 L 11.15625 -4.640625 L 47.5625 -4.640625 L 47.5625 0 L 6.5 0 L 6.5 -82.125 Z M 47.5625 -82.125 "></path></g></g></g></svg>